<?xml version="1.0" encoding="UTF-8" standalone="no"?>
<svg
   xmlns:dc="http://purl.org/dc/elements/1.1/"
   xmlns:cc="http://creativecommons.org/ns#"
   xmlns:rdf="http://www.w3.org/1999/02/22-rdf-syntax-ns#"
   xmlns:svg="http://www.w3.org/2000/svg"
   xmlns="http://www.w3.org/2000/svg"
   xmlns:sodipodi="http://sodipodi.sourceforge.net/DTD/sodipodi-0.dtd"
   xmlns:inkscape="http://www.inkscape.org/namespaces/inkscape"
   viewBox="0 0 1431 1040"
   version="1.1"
   id="svg40"
   sodipodi:docname="icon_purple.svg"
   inkscape:version="1.0.2-2 (e86c870879, 2021-01-15)">
  <metadata
     id="metadata44">
    <rdf:RDF>
      <cc:Work
         rdf:about="">
        <dc:format>image/svg+xml</dc:format>
        <dc:type
           rdf:resource="http://purl.org/dc/dcmitype/StillImage" />
        <dc:title>2 . (icon only)</dc:title>
      </cc:Work>
    </rdf:RDF>
  </metadata>
  <sodipodi:namedview
     pagecolor="#ffffff"
     bordercolor="#666666"
     borderopacity="1"
     objecttolerance="10"
     gridtolerance="10"
     guidetolerance="10"
     inkscape:pageopacity="0"
     inkscape:pageshadow="2"
     inkscape:window-width="1920"
     inkscape:window-height="1001"
     id="namedview42"
     showgrid="false"
     inkscape:zoom="0.79807692"
     inkscape:cx="715.5"
     inkscape:cy="520"
     inkscape:window-x="-9"
     inkscape:window-y="-9"
     inkscape:window-maximized="1"
     inkscape:current-layer="Layer_1" />
  <defs
     id="defs13">
    <style
       id="style2">.cls-1{isolation:isolate;}.cls-2{opacity:0.8;mix-blend-mode:multiply;}.cls-3{fill:url(#linear-gradient);}.cls-4{fill:#fff;}</style>
    <linearGradient
       id="linear-gradient"
       x1="523.18"
       y1="512.42"
       x2="906"
       y2="512.42"
       gradientTransform="translate(571.63 -355.21) rotate(45)"
       gradientUnits="userSpaceOnUse">
      <stop
         offset="0"
         stop-color="#9d3adf"
         id="stop4" />
      <stop
         offset="0.21"
         stop-color="#8542d8"
         id="stop6" />
      <stop
         offset="0.64"
         stop-color="#4857c6"
         id="stop8" />
      <stop
         offset="1"
         stop-color="#106ab6"
         id="stop10" />
    </linearGradient>
  </defs>
  <title
     id="title15">2 . (icon only)</title>
  <g
     class="cls-1"
     id="g38">
    <g
       id="Layer_1"
       data-name="Layer 1">
      <rect
         width="1431"
         height="1040"
         id="rect17"
         style="opacity:0" />
      <rect
         class="cls-3"
         x="559.18"
         y="357.01"
         width="310.81"
         height="310.81"
         rx="68.29"
         transform="translate(-146.04 655.38) rotate(-45)"
         id="rect21" />
      <path
         class="cls-4"
         d="M714.59,592.73a44.85,44.85,0,0,1-43.7-35.05H639.31a75.9,75.9,0,0,0,150.56,0H758.29A44.85,44.85,0,0,1,714.59,592.73Z"
         transform="translate(7 0)"
         id="path23" />
      <path
         class="cls-4"
         d="M757,462.55a44.91,44.91,0,1,1-6.17-11.91L776.51,433a74.46,74.46,0,1,0,.42.59Z"
         transform="translate(7 0)"
         id="path25" />
      <path
         class="cls-4"
         d="M714.59,464.44a3.32,3.32,0,0,0-3.32,3.32V486a3.32,3.32,0,1,0,6.64,0V467.76A3.32,3.32,0,0,0,714.59,464.44Z"
         transform="translate(7 0)"
         id="path27" />
      <path
         class="cls-4"
         d="M703.6,467.76a3.32,3.32,0,0,0-3.32,3.32V482.7a3.32,3.32,0,1,0,6.64,0V471.08A3.32,3.32,0,0,0,703.6,467.76Z"
         transform="translate(7 0)"
         id="path29" />
      <path
         class="cls-4"
         d="M692.6,471.08a3.32,3.32,0,0,0-3.32,3.32v5a3.32,3.32,0,1,0,6.64,0v-5A3.32,3.32,0,0,0,692.6,471.08Z"
         transform="translate(7 0)"
         id="path31" />
      <path
         class="cls-4"
         d="M725.59,467.76a3.32,3.32,0,0,0-3.32,3.32V482.7a3.32,3.32,0,1,0,6.64,0V471.08A3.32,3.32,0,0,0,725.59,467.76Z"
         transform="translate(7 0)"
         id="path33" />
      <path
         class="cls-4"
         d="M736.58,471.08a3.32,3.32,0,0,0-3.32,3.32v5a3.32,3.32,0,1,0,6.64,0v-5A3.32,3.32,0,0,0,736.58,471.08Z"
         transform="translate(7 0)"
         id="path35" />
    </g>
  </g>
</svg>
